<mxfile host="Electron" modified="2024-04-03T19:06:35.472Z" agent="Mozilla/5.0 (Windows NT 10.0; Win64; x64) AppleWebKit/537.36 (KHTML, like Gecko) draw.io/24.1.0 Chrome/120.0.6099.109 Electron/28.1.0 Safari/537.36" etag="3uinwihXR9vHzHDoc5LJ" version="24.1.0" type="device">
  <diagram id="R2lEEEUBdFMjLlhIrx00" name="Page-1">
    <mxGraphModel dx="2074" dy="1196" grid="1" gridSize="10" guides="1" tooltips="1" connect="1" arrows="1" fold="1" page="1" pageScale="1" pageWidth="850" pageHeight="1100" math="0" shadow="0" extFonts="Permanent Marker^https://fonts.googleapis.com/css?family=Permanent+Marker">
      <root>
        <mxCell id="0" />
        <mxCell id="1" parent="0" />
        <mxCell id="_c-2fEYBurjov5Yj6YP4-42" style="edgeStyle=orthogonalEdgeStyle;rounded=0;orthogonalLoop=1;jettySize=auto;html=1;exitX=0.5;exitY=1;exitDx=0;exitDy=0;entryX=0.5;entryY=0;entryDx=0;entryDy=0;" edge="1" parent="1" source="_c-2fEYBurjov5Yj6YP4-1" target="_c-2fEYBurjov5Yj6YP4-15">
          <mxGeometry relative="1" as="geometry" />
        </mxCell>
        <mxCell id="_c-2fEYBurjov5Yj6YP4-54" style="edgeStyle=orthogonalEdgeStyle;rounded=0;orthogonalLoop=1;jettySize=auto;html=1;exitX=1;exitY=0.5;exitDx=0;exitDy=0;entryX=0;entryY=0.5;entryDx=0;entryDy=0;" edge="1" parent="1" source="_c-2fEYBurjov5Yj6YP4-1" target="_c-2fEYBurjov5Yj6YP4-16">
          <mxGeometry relative="1" as="geometry" />
        </mxCell>
        <mxCell id="_c-2fEYBurjov5Yj6YP4-68" style="edgeStyle=orthogonalEdgeStyle;rounded=0;orthogonalLoop=1;jettySize=auto;html=1;exitX=0.5;exitY=0;exitDx=0;exitDy=0;entryX=0.5;entryY=1;entryDx=0;entryDy=0;" edge="1" parent="1" source="_c-2fEYBurjov5Yj6YP4-1" target="_c-2fEYBurjov5Yj6YP4-23">
          <mxGeometry relative="1" as="geometry" />
        </mxCell>
        <mxCell id="_c-2fEYBurjov5Yj6YP4-1" value="&lt;font style=&quot;font-size: 14px;&quot;&gt;Player&lt;/font&gt;" style="rounded=0;whiteSpace=wrap;html=1;fontSize=14;" vertex="1" parent="1">
          <mxGeometry x="120" y="170" width="120" height="60" as="geometry" />
        </mxCell>
        <mxCell id="_c-2fEYBurjov5Yj6YP4-44" style="edgeStyle=orthogonalEdgeStyle;rounded=0;orthogonalLoop=1;jettySize=auto;html=1;exitX=0.5;exitY=1;exitDx=0;exitDy=0;entryX=0.5;entryY=0;entryDx=0;entryDy=0;" edge="1" parent="1" source="_c-2fEYBurjov5Yj6YP4-2" target="_c-2fEYBurjov5Yj6YP4-14">
          <mxGeometry relative="1" as="geometry" />
        </mxCell>
        <mxCell id="_c-2fEYBurjov5Yj6YP4-50" style="edgeStyle=orthogonalEdgeStyle;rounded=0;orthogonalLoop=1;jettySize=auto;html=1;exitX=1;exitY=0.5;exitDx=0;exitDy=0;entryX=0;entryY=0.5;entryDx=0;entryDy=0;" edge="1" parent="1" source="_c-2fEYBurjov5Yj6YP4-2" target="_c-2fEYBurjov5Yj6YP4-12">
          <mxGeometry relative="1" as="geometry" />
        </mxCell>
        <mxCell id="_c-2fEYBurjov5Yj6YP4-76" style="edgeStyle=orthogonalEdgeStyle;rounded=0;orthogonalLoop=1;jettySize=auto;html=1;exitX=0;exitY=0;exitDx=0;exitDy=0;entryX=1;entryY=0.5;entryDx=0;entryDy=0;" edge="1" parent="1" source="_c-2fEYBurjov5Yj6YP4-2" target="_c-2fEYBurjov5Yj6YP4-37">
          <mxGeometry relative="1" as="geometry" />
        </mxCell>
        <mxCell id="_c-2fEYBurjov5Yj6YP4-77" style="edgeStyle=orthogonalEdgeStyle;rounded=0;orthogonalLoop=1;jettySize=auto;html=1;exitX=0;exitY=0.5;exitDx=0;exitDy=0;entryX=1;entryY=0.5;entryDx=0;entryDy=0;" edge="1" parent="1" source="_c-2fEYBurjov5Yj6YP4-2" target="_c-2fEYBurjov5Yj6YP4-75">
          <mxGeometry relative="1" as="geometry" />
        </mxCell>
        <mxCell id="_c-2fEYBurjov5Yj6YP4-79" style="edgeStyle=orthogonalEdgeStyle;rounded=0;orthogonalLoop=1;jettySize=auto;html=1;exitX=0;exitY=0.75;exitDx=0;exitDy=0;entryX=1;entryY=0.5;entryDx=0;entryDy=0;" edge="1" parent="1" source="_c-2fEYBurjov5Yj6YP4-2" target="_c-2fEYBurjov5Yj6YP4-78">
          <mxGeometry relative="1" as="geometry" />
        </mxCell>
        <mxCell id="_c-2fEYBurjov5Yj6YP4-81" style="edgeStyle=orthogonalEdgeStyle;rounded=0;orthogonalLoop=1;jettySize=auto;html=1;exitX=0;exitY=1;exitDx=0;exitDy=0;entryX=1;entryY=0.5;entryDx=0;entryDy=0;" edge="1" parent="1" source="_c-2fEYBurjov5Yj6YP4-2" target="_c-2fEYBurjov5Yj6YP4-80">
          <mxGeometry relative="1" as="geometry" />
        </mxCell>
        <mxCell id="_c-2fEYBurjov5Yj6YP4-2" value="Game" style="rounded=0;whiteSpace=wrap;html=1;fontSize=14;" vertex="1" parent="1">
          <mxGeometry x="140" y="450" width="120" height="60" as="geometry" />
        </mxCell>
        <mxCell id="_c-2fEYBurjov5Yj6YP4-46" style="edgeStyle=orthogonalEdgeStyle;rounded=0;orthogonalLoop=1;jettySize=auto;html=1;exitX=1;exitY=0.5;exitDx=0;exitDy=0;entryX=0;entryY=0.5;entryDx=0;entryDy=0;" edge="1" parent="1" source="_c-2fEYBurjov5Yj6YP4-3" target="_c-2fEYBurjov5Yj6YP4-13">
          <mxGeometry relative="1" as="geometry" />
        </mxCell>
        <mxCell id="_c-2fEYBurjov5Yj6YP4-70" style="edgeStyle=orthogonalEdgeStyle;rounded=0;orthogonalLoop=1;jettySize=auto;html=1;exitX=0;exitY=0.25;exitDx=0;exitDy=0;entryX=1;entryY=0;entryDx=0;entryDy=0;" edge="1" parent="1" source="_c-2fEYBurjov5Yj6YP4-3" target="_c-2fEYBurjov5Yj6YP4-39">
          <mxGeometry relative="1" as="geometry" />
        </mxCell>
        <mxCell id="_c-2fEYBurjov5Yj6YP4-71" style="edgeStyle=orthogonalEdgeStyle;rounded=0;orthogonalLoop=1;jettySize=auto;html=1;exitX=0;exitY=0.5;exitDx=0;exitDy=0;entryX=1;entryY=0.5;entryDx=0;entryDy=0;" edge="1" parent="1" source="_c-2fEYBurjov5Yj6YP4-3" target="_c-2fEYBurjov5Yj6YP4-38">
          <mxGeometry relative="1" as="geometry" />
        </mxCell>
        <mxCell id="_c-2fEYBurjov5Yj6YP4-3" value="Main Menu" style="rounded=0;whiteSpace=wrap;html=1;fontSize=14;" vertex="1" parent="1">
          <mxGeometry x="160" y="740" width="120" height="60" as="geometry" />
        </mxCell>
        <mxCell id="_c-2fEYBurjov5Yj6YP4-72" style="edgeStyle=orthogonalEdgeStyle;rounded=0;orthogonalLoop=1;jettySize=auto;html=1;exitX=0;exitY=1;exitDx=0;exitDy=0;entryX=0.5;entryY=0;entryDx=0;entryDy=0;" edge="1" parent="1" source="_c-2fEYBurjov5Yj6YP4-4" target="_c-2fEYBurjov5Yj6YP4-26">
          <mxGeometry relative="1" as="geometry" />
        </mxCell>
        <mxCell id="_c-2fEYBurjov5Yj6YP4-73" style="edgeStyle=orthogonalEdgeStyle;rounded=0;orthogonalLoop=1;jettySize=auto;html=1;exitX=0.25;exitY=1;exitDx=0;exitDy=0;entryX=0.5;entryY=0;entryDx=0;entryDy=0;" edge="1" parent="1" source="_c-2fEYBurjov5Yj6YP4-4" target="_c-2fEYBurjov5Yj6YP4-25">
          <mxGeometry relative="1" as="geometry" />
        </mxCell>
        <mxCell id="_c-2fEYBurjov5Yj6YP4-74" style="edgeStyle=orthogonalEdgeStyle;rounded=0;orthogonalLoop=1;jettySize=auto;html=1;exitX=0.75;exitY=1;exitDx=0;exitDy=0;entryX=0.5;entryY=0;entryDx=0;entryDy=0;" edge="1" parent="1" source="_c-2fEYBurjov5Yj6YP4-4" target="_c-2fEYBurjov5Yj6YP4-24">
          <mxGeometry relative="1" as="geometry" />
        </mxCell>
        <mxCell id="_c-2fEYBurjov5Yj6YP4-4" value="Options Menu" style="rounded=0;whiteSpace=wrap;html=1;fontSize=14;" vertex="1" parent="1">
          <mxGeometry x="470" y="870" width="120" height="60" as="geometry" />
        </mxCell>
        <mxCell id="_c-2fEYBurjov5Yj6YP4-48" style="edgeStyle=orthogonalEdgeStyle;rounded=0;orthogonalLoop=1;jettySize=auto;html=1;exitX=0.5;exitY=0;exitDx=0;exitDy=0;entryX=0.5;entryY=1;entryDx=0;entryDy=0;" edge="1" parent="1" source="_c-2fEYBurjov5Yj6YP4-5" target="_c-2fEYBurjov5Yj6YP4-34">
          <mxGeometry relative="1" as="geometry" />
        </mxCell>
        <mxCell id="_c-2fEYBurjov5Yj6YP4-57" style="edgeStyle=orthogonalEdgeStyle;rounded=0;orthogonalLoop=1;jettySize=auto;html=1;exitX=0.75;exitY=0;exitDx=0;exitDy=0;entryX=0;entryY=0.5;entryDx=0;entryDy=0;" edge="1" parent="1" source="_c-2fEYBurjov5Yj6YP4-5" target="_c-2fEYBurjov5Yj6YP4-17">
          <mxGeometry relative="1" as="geometry" />
        </mxCell>
        <mxCell id="_c-2fEYBurjov5Yj6YP4-58" style="edgeStyle=orthogonalEdgeStyle;rounded=0;orthogonalLoop=1;jettySize=auto;html=1;exitX=1;exitY=0;exitDx=0;exitDy=0;entryX=0;entryY=0.5;entryDx=0;entryDy=0;" edge="1" parent="1" source="_c-2fEYBurjov5Yj6YP4-5" target="_c-2fEYBurjov5Yj6YP4-18">
          <mxGeometry relative="1" as="geometry" />
        </mxCell>
        <mxCell id="_c-2fEYBurjov5Yj6YP4-59" style="edgeStyle=orthogonalEdgeStyle;rounded=0;orthogonalLoop=1;jettySize=auto;html=1;exitX=1;exitY=0.5;exitDx=0;exitDy=0;entryX=0;entryY=0;entryDx=0;entryDy=0;" edge="1" parent="1" source="_c-2fEYBurjov5Yj6YP4-5" target="_c-2fEYBurjov5Yj6YP4-32">
          <mxGeometry relative="1" as="geometry" />
        </mxCell>
        <mxCell id="_c-2fEYBurjov5Yj6YP4-60" style="edgeStyle=orthogonalEdgeStyle;rounded=0;orthogonalLoop=1;jettySize=auto;html=1;exitX=0.75;exitY=1;exitDx=0;exitDy=0;entryX=0;entryY=0.5;entryDx=0;entryDy=0;" edge="1" parent="1" source="_c-2fEYBurjov5Yj6YP4-5" target="_c-2fEYBurjov5Yj6YP4-30">
          <mxGeometry relative="1" as="geometry" />
        </mxCell>
        <mxCell id="_c-2fEYBurjov5Yj6YP4-5" value="Enemy" style="rounded=0;whiteSpace=wrap;html=1;fontSize=14;" vertex="1" parent="1">
          <mxGeometry x="577.5" y="750" width="120" height="60" as="geometry" />
        </mxCell>
        <mxCell id="_c-2fEYBurjov5Yj6YP4-52" style="edgeStyle=orthogonalEdgeStyle;rounded=0;orthogonalLoop=1;jettySize=auto;html=1;exitX=0.5;exitY=1;exitDx=0;exitDy=0;entryX=0.5;entryY=0;entryDx=0;entryDy=0;" edge="1" parent="1" source="_c-2fEYBurjov5Yj6YP4-6" target="_c-2fEYBurjov5Yj6YP4-35">
          <mxGeometry relative="1" as="geometry" />
        </mxCell>
        <mxCell id="_c-2fEYBurjov5Yj6YP4-64" style="edgeStyle=orthogonalEdgeStyle;rounded=0;orthogonalLoop=1;jettySize=auto;html=1;exitX=1;exitY=0;exitDx=0;exitDy=0;entryX=0;entryY=0.5;entryDx=0;entryDy=0;" edge="1" parent="1" source="_c-2fEYBurjov5Yj6YP4-6" target="_c-2fEYBurjov5Yj6YP4-21">
          <mxGeometry relative="1" as="geometry" />
        </mxCell>
        <mxCell id="_c-2fEYBurjov5Yj6YP4-65" style="edgeStyle=orthogonalEdgeStyle;rounded=0;orthogonalLoop=1;jettySize=auto;html=1;exitX=1;exitY=0.25;exitDx=0;exitDy=0;entryX=0;entryY=0.5;entryDx=0;entryDy=0;" edge="1" parent="1" source="_c-2fEYBurjov5Yj6YP4-6" target="_c-2fEYBurjov5Yj6YP4-20">
          <mxGeometry relative="1" as="geometry" />
        </mxCell>
        <mxCell id="_c-2fEYBurjov5Yj6YP4-67" style="edgeStyle=orthogonalEdgeStyle;rounded=0;orthogonalLoop=1;jettySize=auto;html=1;exitX=1;exitY=1;exitDx=0;exitDy=0;entryX=0;entryY=0.5;entryDx=0;entryDy=0;" edge="1" parent="1" source="_c-2fEYBurjov5Yj6YP4-6" target="_c-2fEYBurjov5Yj6YP4-19">
          <mxGeometry relative="1" as="geometry" />
        </mxCell>
        <mxCell id="_c-2fEYBurjov5Yj6YP4-6" value="Character" style="rounded=0;whiteSpace=wrap;html=1;fontSize=14;" vertex="1" parent="1">
          <mxGeometry x="490" y="160" width="120" height="60" as="geometry" />
        </mxCell>
        <mxCell id="_c-2fEYBurjov5Yj6YP4-51" style="edgeStyle=orthogonalEdgeStyle;rounded=0;orthogonalLoop=1;jettySize=auto;html=1;exitX=1;exitY=0.5;exitDx=0;exitDy=0;entryX=0;entryY=0.5;entryDx=0;entryDy=0;" edge="1" parent="1" source="_c-2fEYBurjov5Yj6YP4-12" target="_c-2fEYBurjov5Yj6YP4-5">
          <mxGeometry relative="1" as="geometry" />
        </mxCell>
        <mxCell id="_c-2fEYBurjov5Yj6YP4-12" value="Controls" style="rhombus;whiteSpace=wrap;html=1;fontSize=14;" vertex="1" parent="1">
          <mxGeometry x="350" y="520" width="120" height="80" as="geometry" />
        </mxCell>
        <mxCell id="_c-2fEYBurjov5Yj6YP4-47" style="edgeStyle=orthogonalEdgeStyle;rounded=0;orthogonalLoop=1;jettySize=auto;html=1;exitX=1;exitY=0.5;exitDx=0;exitDy=0;entryX=0.5;entryY=0;entryDx=0;entryDy=0;" edge="1" parent="1" source="_c-2fEYBurjov5Yj6YP4-13" target="_c-2fEYBurjov5Yj6YP4-4">
          <mxGeometry relative="1" as="geometry" />
        </mxCell>
        <mxCell id="_c-2fEYBurjov5Yj6YP4-13" value="Accesses" style="rhombus;whiteSpace=wrap;html=1;fontSize=14;" vertex="1" parent="1">
          <mxGeometry x="340" y="790" width="120" height="80" as="geometry" />
        </mxCell>
        <mxCell id="_c-2fEYBurjov5Yj6YP4-45" style="edgeStyle=orthogonalEdgeStyle;rounded=0;orthogonalLoop=1;jettySize=auto;html=1;exitX=0.5;exitY=1;exitDx=0;exitDy=0;entryX=0.5;entryY=0;entryDx=0;entryDy=0;" edge="1" parent="1" source="_c-2fEYBurjov5Yj6YP4-14" target="_c-2fEYBurjov5Yj6YP4-3">
          <mxGeometry relative="1" as="geometry" />
        </mxCell>
        <mxCell id="_c-2fEYBurjov5Yj6YP4-14" value="Includes" style="rhombus;whiteSpace=wrap;html=1;fontSize=14;" vertex="1" parent="1">
          <mxGeometry x="170" y="600" width="120" height="80" as="geometry" />
        </mxCell>
        <mxCell id="_c-2fEYBurjov5Yj6YP4-43" style="edgeStyle=orthogonalEdgeStyle;rounded=0;orthogonalLoop=1;jettySize=auto;html=1;exitX=0.5;exitY=1;exitDx=0;exitDy=0;entryX=0.5;entryY=0;entryDx=0;entryDy=0;" edge="1" parent="1" source="_c-2fEYBurjov5Yj6YP4-15" target="_c-2fEYBurjov5Yj6YP4-2">
          <mxGeometry relative="1" as="geometry" />
        </mxCell>
        <mxCell id="_c-2fEYBurjov5Yj6YP4-15" value="Accesses" style="rhombus;whiteSpace=wrap;html=1;fontSize=14;" vertex="1" parent="1">
          <mxGeometry x="120" y="290" width="120" height="80" as="geometry" />
        </mxCell>
        <mxCell id="_c-2fEYBurjov5Yj6YP4-55" style="edgeStyle=orthogonalEdgeStyle;rounded=0;orthogonalLoop=1;jettySize=auto;html=1;exitX=1;exitY=0.5;exitDx=0;exitDy=0;entryX=0;entryY=0.5;entryDx=0;entryDy=0;" edge="1" parent="1" source="_c-2fEYBurjov5Yj6YP4-16" target="_c-2fEYBurjov5Yj6YP4-6">
          <mxGeometry relative="1" as="geometry" />
        </mxCell>
        <mxCell id="_c-2fEYBurjov5Yj6YP4-16" value="Controls" style="rhombus;whiteSpace=wrap;html=1;fontSize=14;" vertex="1" parent="1">
          <mxGeometry x="305" y="160" width="120" height="80" as="geometry" />
        </mxCell>
        <mxCell id="_c-2fEYBurjov5Yj6YP4-17" value="Defense" style="ellipse;whiteSpace=wrap;html=1;fontSize=14;" vertex="1" parent="1">
          <mxGeometry x="742.5" y="680" width="90" height="50" as="geometry" />
        </mxCell>
        <mxCell id="_c-2fEYBurjov5Yj6YP4-18" value="Attacks" style="ellipse;whiteSpace=wrap;html=1;fontSize=14;" vertex="1" parent="1">
          <mxGeometry x="742.5" y="730" width="90" height="50" as="geometry" />
        </mxCell>
        <mxCell id="_c-2fEYBurjov5Yj6YP4-19" value="Health" style="ellipse;whiteSpace=wrap;html=1;fontSize=14;" vertex="1" parent="1">
          <mxGeometry x="652.5" y="250" width="90" height="50" as="geometry" />
        </mxCell>
        <mxCell id="_c-2fEYBurjov5Yj6YP4-20" value="Defense" style="ellipse;whiteSpace=wrap;html=1;fontSize=14;" vertex="1" parent="1">
          <mxGeometry x="660" y="130" width="80" height="50" as="geometry" />
        </mxCell>
        <mxCell id="_c-2fEYBurjov5Yj6YP4-21" value="Attacks" style="ellipse;whiteSpace=wrap;html=1;fontSize=14;" vertex="1" parent="1">
          <mxGeometry x="652.5" y="60" width="100" height="50" as="geometry" />
        </mxCell>
        <mxCell id="_c-2fEYBurjov5Yj6YP4-22" value="Options" style="ellipse;whiteSpace=wrap;html=1;fontSize=14;" vertex="1" parent="1">
          <mxGeometry x="20" y="100" width="100" height="50" as="geometry" />
        </mxCell>
        <mxCell id="_c-2fEYBurjov5Yj6YP4-23" value="Input" style="ellipse;whiteSpace=wrap;html=1;fontSize=14;" vertex="1" parent="1">
          <mxGeometry x="130" y="50" width="90" height="50" as="geometry" />
        </mxCell>
        <mxCell id="_c-2fEYBurjov5Yj6YP4-24" value="Quality" style="ellipse;whiteSpace=wrap;html=1;fontSize=14;" vertex="1" parent="1">
          <mxGeometry x="562.5" y="980" width="80" height="50" as="geometry" />
        </mxCell>
        <mxCell id="_c-2fEYBurjov5Yj6YP4-25" value="Fullscreen" style="ellipse;whiteSpace=wrap;html=1;fontSize=14;" vertex="1" parent="1">
          <mxGeometry x="472.5" y="980" width="90" height="50" as="geometry" />
        </mxCell>
        <mxCell id="_c-2fEYBurjov5Yj6YP4-26" value="Volume" style="ellipse;whiteSpace=wrap;html=1;fontSize=14;" vertex="1" parent="1">
          <mxGeometry x="382.5" y="980" width="90" height="50" as="geometry" />
        </mxCell>
        <mxCell id="_c-2fEYBurjov5Yj6YP4-27" value="Timer" style="ellipse;whiteSpace=wrap;html=1;fontSize=14;" vertex="1" parent="1">
          <mxGeometry x="680" y="410" width="90" height="60" as="geometry" />
        </mxCell>
        <mxCell id="_c-2fEYBurjov5Yj6YP4-28" value="Boundaries" style="ellipse;whiteSpace=wrap;html=1;fontSize=14;" vertex="1" parent="1">
          <mxGeometry x="680" y="470" width="90" height="60" as="geometry" />
        </mxCell>
        <mxCell id="_c-2fEYBurjov5Yj6YP4-29" value="Platforms" style="ellipse;whiteSpace=wrap;html=1;fontSize=14;" vertex="1" parent="1">
          <mxGeometry x="680" y="350" width="90" height="60" as="geometry" />
        </mxCell>
        <mxCell id="_c-2fEYBurjov5Yj6YP4-30" value="Animations" style="ellipse;whiteSpace=wrap;html=1;fontSize=14;" vertex="1" parent="1">
          <mxGeometry x="740" y="830" width="95" height="50" as="geometry" />
        </mxCell>
        <mxCell id="_c-2fEYBurjov5Yj6YP4-31" value="Animations" style="ellipse;whiteSpace=wrap;html=1;fontSize=14;" vertex="1" parent="1">
          <mxGeometry x="652.5" y="190" width="90" height="50" as="geometry" />
        </mxCell>
        <mxCell id="_c-2fEYBurjov5Yj6YP4-32" value="Health" style="ellipse;whiteSpace=wrap;html=1;fontSize=14;" vertex="1" parent="1">
          <mxGeometry x="742.5" y="780" width="90" height="50" as="geometry" />
        </mxCell>
        <mxCell id="_c-2fEYBurjov5Yj6YP4-61" style="edgeStyle=orthogonalEdgeStyle;rounded=0;orthogonalLoop=1;jettySize=auto;html=1;exitX=1;exitY=0;exitDx=0;exitDy=0;entryX=0;entryY=0.5;entryDx=0;entryDy=0;" edge="1" parent="1" source="_c-2fEYBurjov5Yj6YP4-33" target="_c-2fEYBurjov5Yj6YP4-29">
          <mxGeometry relative="1" as="geometry" />
        </mxCell>
        <mxCell id="_c-2fEYBurjov5Yj6YP4-62" style="edgeStyle=orthogonalEdgeStyle;rounded=0;orthogonalLoop=1;jettySize=auto;html=1;exitX=1;exitY=0.25;exitDx=0;exitDy=0;entryX=0;entryY=0.5;entryDx=0;entryDy=0;" edge="1" parent="1" source="_c-2fEYBurjov5Yj6YP4-33" target="_c-2fEYBurjov5Yj6YP4-27">
          <mxGeometry relative="1" as="geometry" />
        </mxCell>
        <mxCell id="_c-2fEYBurjov5Yj6YP4-33" value="Stage" style="rounded=0;whiteSpace=wrap;html=1;fontSize=14;" vertex="1" parent="1">
          <mxGeometry x="520" y="420" width="120" height="60" as="geometry" />
        </mxCell>
        <mxCell id="_c-2fEYBurjov5Yj6YP4-49" style="edgeStyle=orthogonalEdgeStyle;rounded=0;orthogonalLoop=1;jettySize=auto;html=1;exitX=0.5;exitY=0;exitDx=0;exitDy=0;entryX=0.5;entryY=1;entryDx=0;entryDy=0;" edge="1" parent="1" source="_c-2fEYBurjov5Yj6YP4-34" target="_c-2fEYBurjov5Yj6YP4-33">
          <mxGeometry relative="1" as="geometry" />
        </mxCell>
        <mxCell id="_c-2fEYBurjov5Yj6YP4-34" value="Plays On" style="rhombus;whiteSpace=wrap;html=1;fontSize=14;" vertex="1" parent="1">
          <mxGeometry x="570" y="580" width="120" height="80" as="geometry" />
        </mxCell>
        <mxCell id="_c-2fEYBurjov5Yj6YP4-53" style="edgeStyle=orthogonalEdgeStyle;rounded=0;orthogonalLoop=1;jettySize=auto;html=1;exitX=0.5;exitY=1;exitDx=0;exitDy=0;entryX=0.5;entryY=0;entryDx=0;entryDy=0;" edge="1" parent="1" source="_c-2fEYBurjov5Yj6YP4-35" target="_c-2fEYBurjov5Yj6YP4-33">
          <mxGeometry relative="1" as="geometry" />
        </mxCell>
        <mxCell id="_c-2fEYBurjov5Yj6YP4-35" value="Plays On" style="rhombus;whiteSpace=wrap;html=1;fontSize=14;" vertex="1" parent="1">
          <mxGeometry x="490" y="280" width="120" height="80" as="geometry" />
        </mxCell>
        <mxCell id="_c-2fEYBurjov5Yj6YP4-37" value="Menus" style="ellipse;whiteSpace=wrap;html=1;fontSize=14;" vertex="1" parent="1">
          <mxGeometry x="17.5" y="400" width="85" height="50" as="geometry" />
        </mxCell>
        <mxCell id="_c-2fEYBurjov5Yj6YP4-38" value="Quit" style="ellipse;whiteSpace=wrap;html=1;fontSize=14;" vertex="1" parent="1">
          <mxGeometry x="15" y="780" width="80" height="60" as="geometry" />
        </mxCell>
        <mxCell id="_c-2fEYBurjov5Yj6YP4-39" value="Play" style="ellipse;whiteSpace=wrap;html=1;fontSize=14;" vertex="1" parent="1">
          <mxGeometry x="10" y="710" width="90" height="60" as="geometry" />
        </mxCell>
        <mxCell id="_c-2fEYBurjov5Yj6YP4-63" style="edgeStyle=orthogonalEdgeStyle;rounded=0;orthogonalLoop=1;jettySize=auto;html=1;exitX=1;exitY=0.75;exitDx=0;exitDy=0;entryX=-0.033;entryY=0.667;entryDx=0;entryDy=0;entryPerimeter=0;" edge="1" parent="1" source="_c-2fEYBurjov5Yj6YP4-33" target="_c-2fEYBurjov5Yj6YP4-28">
          <mxGeometry relative="1" as="geometry" />
        </mxCell>
        <mxCell id="_c-2fEYBurjov5Yj6YP4-66" style="edgeStyle=orthogonalEdgeStyle;rounded=0;orthogonalLoop=1;jettySize=auto;html=1;exitX=1;exitY=0.5;exitDx=0;exitDy=0;entryX=0.083;entryY=0.6;entryDx=0;entryDy=0;entryPerimeter=0;" edge="1" parent="1" source="_c-2fEYBurjov5Yj6YP4-6" target="_c-2fEYBurjov5Yj6YP4-31">
          <mxGeometry relative="1" as="geometry" />
        </mxCell>
        <mxCell id="_c-2fEYBurjov5Yj6YP4-69" style="edgeStyle=orthogonalEdgeStyle;rounded=0;orthogonalLoop=1;jettySize=auto;html=1;exitX=0.25;exitY=0;exitDx=0;exitDy=0;entryX=0.99;entryY=0.32;entryDx=0;entryDy=0;entryPerimeter=0;" edge="1" parent="1" source="_c-2fEYBurjov5Yj6YP4-1" target="_c-2fEYBurjov5Yj6YP4-22">
          <mxGeometry relative="1" as="geometry" />
        </mxCell>
        <mxCell id="_c-2fEYBurjov5Yj6YP4-75" value="Executable" style="ellipse;whiteSpace=wrap;html=1;fontSize=14;" vertex="1" parent="1">
          <mxGeometry y="460" width="95" height="50" as="geometry" />
        </mxCell>
        <mxCell id="_c-2fEYBurjov5Yj6YP4-78" value="Controls" style="ellipse;whiteSpace=wrap;html=1;fontSize=14;" vertex="1" parent="1">
          <mxGeometry y="520" width="95" height="50" as="geometry" />
        </mxCell>
        <mxCell id="_c-2fEYBurjov5Yj6YP4-80" value="Tutorial" style="ellipse;whiteSpace=wrap;html=1;fontSize=14;" vertex="1" parent="1">
          <mxGeometry x="10" y="580" width="85" height="50" as="geometry" />
        </mxCell>
      </root>
    </mxGraphModel>
  </diagram>
</mxfile>
